Coordinates
version=1
nRows=20
nColumns=63
inDegrees=yes

Units are S.I. units (second, meters, Newtons, ...)
If the header above contains a line with 'inDegrees', this indicates whether rotational values are in degrees (yes) or radians (no).

endheader
time	pelvis_tilt	pelvis_list	pelvis_rotation	pelvis_tx	pelvis_ty	pelvis_tz	hip_flexion_r	hip_adduction_r	hip_rotation_r	knee_angle_r	knee_angle_r_beta	ankle_angle_r	subtalar_angle_r	mtp_angle_r	hip_flexion_l	hip_adduction_l	hip_rotation_l	knee_angle_l	knee_angle_l_beta	ankle_angle_l	subtalar_angle_l	mtp_angle_l	L5_S1_Flex_Ext	L5_S1_Lat_Bending	L5_S1_axial_rotation	L4_L5_Flex_Ext	L4_L5_Lat_Bending	L4_L5_axial_rotation	L3_L4_Flex_Ext	L3_L4_Lat_Bending	L3_L4_axial_rotation	L2_L3_Flex_Ext	L2_L3_Lat_Bending	L2_L3_axial_rotation	L1_L2_Flex_Ext	L1_L2_Lat_Bending	L1_L2_axial_rotation	L1_T12_Flex_Ext	L1_T12_Lat_Bending	L1_T12_axial_rotation	Abs_r3	Abs_r2	Abs_r1	Abs_t1	Abs_t2	neck_flexion	neck_bending	neck_rotation	arm_flex_r	arm_add_r	arm_rot_r	elbow_flex_r	pro_sup_r	wrist_flex_r	wrist_dev_r	arm_flex_l	arm_add_l	arm_rot_l	elbow_flex_l	pro_sup_l	wrist_flex_l	wrist_dev_l
1.333333	5.824658	-3.506601	99.516522	0.007661	1.010968	0.603097	-4.634333	4.213500	6.992300	1.105301	0.019291	26.960983	-11.628162	0.000000	-3.040679	-4.462939	21.306879	0.582004	0.010158	27.079429	-16.640020	0.000000	0.041284	0.474345	-0.042612	0.076668	0.630879	-0.045275	0.067825	1.153323	-0.045275	0.047183	1.153323	-0.037285	0.038336	0.967284	-0.034622	0.023590	0.734761	-0.031959	0.294886	5.365886	-0.236995	0.000000	0.000000	27.803293	4.824126	5.840478	14.928670	-7.581388	130.693695	14.949865	3.469771	-3.219040	-2.604271	12.473487	0.290131	147.477925	2.244997	1.278759	-3.851198	-15.307229
1.350000	5.828244	-3.847808	99.392457	0.007456	1.011503	0.605332	-4.027558	4.112066	7.021673	1.338983	0.023370	26.725991	-11.708120	0.000000	-2.526651	-4.327041	20.986599	0.631102	0.011015	26.948855	-16.526370	0.000000	0.055721	0.477151	-0.011452	0.103480	0.634611	-0.012168	0.091545	1.160144	-0.012168	0.063684	1.160144	-0.010021	0.051743	0.973006	-0.009305	0.031839	0.739107	-0.008589	0.398012	5.397625	-0.063694	0.000000	0.000000	27.726017	4.809515	6.341256	15.909326	-7.236929	130.489887	15.185077	4.404104	-4.006495	-3.554833	13.503269	1.114652	148.711195	1.832985	1.209169	-4.634695	-16.188519
1.366667	5.815669	-4.166336	99.330745	0.007127	1.012198	0.607641	-3.447139	4.004228	6.997869	1.585039	0.027664	26.431850	-11.811836	0.000000	-2.018707	-4.181008	20.700927	0.683418	0.011928	26.823603	-16.349900	0.000000	0.067453	0.477748	0.009128	0.125267	0.635405	0.009699	0.110818	1.161597	0.009699	0.077092	1.161597	0.007987	0.062637	0.974225	0.007417	0.038543	0.740032	0.006846	0.481809	5.404386	0.050768	0.000000	0.000000	27.584361	4.796281	6.838322	16.898528	-6.907109	129.520382	15.608097	5.394757	-4.633554	-4.773849	14.614216	2.062927	149.795669	1.409281	1.129755	-5.001356	-17.174594
1.383333	5.790071	-4.443934	99.316391	0.006738	1.013069	0.609908	-2.920322	3.893011	6.861614	1.833167	0.031995	26.127793	-11.816995	0.000000	-1.547431	-4.033346	20.458073	0.737032	0.012864	26.677632	-16.142982	0.000000	0.076230	0.475556	0.026345	0.141567	0.632489	0.027991	0.125239	1.156266	0.027991	0.087124	1.156266	0.023052	0.070787	0.969753	0.021405	0.043558	0.736636	0.019759	0.544506	5.379580	0.146522	0.000000	0.000000	27.381284	4.761797	7.247306	17.804896	-6.605778	127.688804	16.216757	6.451243	-5.082019	-6.178295	15.760677	3.099335	150.822033	0.959995	1.030388	-4.797415	-18.233913
1.400000	5.752795	-4.675015	99.411001	0.006204	1.014084	0.612111	-2.463777	3.785580	6.611363	2.063972	0.036023	25.806554	-11.809236	0.000000	-1.108994	-3.888829	20.313163	0.799972	0.013962	26.525154	-15.889821	0.000000	0.082377	0.470779	0.024280	0.152982	0.626136	0.025798	0.135337	1.144651	0.025798	0.094149	1.144651	0.021245	0.076495	0.960012	0.019728	0.047070	0.729236	0.018210	0.588411	5.325543	0.135039	0.000000	0.000000	27.114585	4.713600	7.615733	18.579012	-6.353077	124.925295	17.034301	7.588916	-5.342686	-7.619803	16.889614	4.189783	152.127726	0.507950	0.926557	-4.443807	-19.326585
1.416667	5.703346	-4.855593	99.596222	0.005614	1.015210	0.614153	-2.090738	3.680940	6.136830	2.267651	0.039578	25.536993	-11.601004	0.000000	-0.717966	-3.748043	20.253647	0.875652	0.015283	26.342930	-15.620288	0.000000	0.087272	0.462058	0.011977	0.162074	0.614537	0.012726	0.143380	1.123448	0.012726	0.099744	1.123448	0.010480	0.081041	0.942229	0.009731	0.049867	0.715728	0.008983	0.623378	5.226895	0.066613	0.000000	0.000000	26.798659	4.613315	7.836152	19.150962	-6.147983	121.172261	18.027816	8.641885	-5.450871	-8.907697	17.983320	5.255136	153.355221	0.215408	0.844693	-4.033396	-20.382561
1.433333	5.649443	-4.987434	99.878043	0.004965	1.016370	0.615959	-1.808083	3.588163	5.435368	2.434977	0.042498	25.325812	-11.187833	0.000000	-0.373101	-3.619852	20.188273	0.972174	0.016968	26.197478	-15.183502	0.000000	0.092621	0.450105	-0.015011	0.172007	0.598640	-0.015949	0.152168	1.094386	-0.015949	0.105857	1.094386	-0.013135	0.086008	0.917855	-0.012197	0.052924	0.697213	-0.011258	0.661585	5.091680	-0.083488	0.000000	0.000000	26.427050	4.506379	7.944506	19.502688	-6.011480	116.422968	19.196173	9.652325	-5.420383	-9.882589	18.983576	6.249432	154.598781	0.084743	0.819715	-3.746432	-21.384516
1.450000	5.583938	-5.060306	100.234838	0.004299	1.017525	0.617481	-1.642420	3.503729	4.734198	2.542879	0.044382	25.102747	-10.853929	0.000000	-0.103174	-3.500899	20.284424	1.068722	0.018653	26.007232	-14.874163	0.000000	0.096016	0.433912	-0.054732	0.178311	0.577103	-0.058153	0.157744	1.055014	-0.058153	0.109736	1.055014	-0.047891	0.089160	0.884834	-0.044470	0.054863	0.672130	-0.041049	0.685831	4.908500	-0.304405	0.000000	0.000000	26.037603	4.396054	7.905729	19.681480	-5.944826	111.024480	20.501533	10.319101	-5.258508	-10.479180	19.847237	7.142909	155.925335	0.050800	0.795354	-3.589020	-22.296782
1.466667	5.544264	-5.063856	100.615663	0.003519	1.018716	0.618742	-1.587801	3.457209	4.037927	2.608741	0.045531	24.845794	-10.541482	0.000000	0.079991	-3.423798	20.442740	1.165459	0.020341	25.799791	-14.626671	0.000000	0.097946	0.420143	-0.094749	0.181896	0.558791	-0.100671	0.160916	1.021537	-0.100671	0.111943	1.021537	-0.082905	0.090953	0.856757	-0.076983	0.055966	0.650802	-0.071062	0.699620	4.752747	-0.526965	0.000000	0.000000	25.582433	4.231041	7.635674	19.737373	-6.050412	105.215992	21.970878	10.358795	-4.994033	-10.683678	20.494513	7.993405	157.952847	0.132105	0.809009	-5.594374	-23.089321
1.483333	5.532886	-4.990468	100.994677	0.002659	1.019937	0.619796	-1.646200	3.451774	3.453679	2.636340	0.046013	24.519669	-10.365422	0.000000	0.168300	-3.391703	20.613357	1.262506	0.022035	25.599754	-14.404042	0.000000	0.098004	0.409282	-0.117971	0.182004	0.544345	-0.125344	0.161011	0.995128	-0.125344	0.112009	0.995128	-0.103225	0.091007	0.834607	-0.095852	0.056000	0.633978	-0.088478	0.700034	4.629878	-0.656121	0.000000	0.000000	25.041201	4.073275	7.125011	19.625290	-6.371854	99.142856	23.617125	9.818796	-4.663438	-10.453168	21.020348	8.814063	160.187511	0.185980	0.806826	-7.873769	-23.755125
1.500000	5.522810	-4.860453	101.354111	0.001881	1.021102	0.620586	-1.801232	3.465913	3.031128	2.624692	0.045810	24.133191	-10.379276	0.000000	0.168769	-3.381282	20.790980	1.349031	0.023545	25.409214	-14.224624	0.000000	0.097306	0.396175	-0.127256	0.180707	0.526913	-0.135209	0.159864	0.963260	-0.135209	0.111211	0.963260	-0.111349	0.090359	0.807880	-0.103395	0.055601	0.613675	-0.095442	0.695048	4.481609	-0.707757	0.000000	0.000000	24.451713	3.960180	6.394620	19.362776	-6.904485	93.060555	25.423818	8.943942	-4.245807	-9.843160	21.474245	9.489578	161.999803	0.212774	0.799132	-9.106980	-24.267206
1.516667	5.499687	-4.709125	101.682931	0.001289	1.022120	0.621041	-2.014729	3.484475	2.771880	2.577720	0.044990	23.731971	-10.549871	0.000000	0.108968	-3.377513	20.956797	1.417721	0.024744	25.236069	-14.076915	0.000000	0.098759	0.378108	-0.130067	0.183405	0.502884	-0.138196	0.162251	0.919332	-0.138196	0.112871	0.919332	-0.113809	0.091707	0.771038	-0.105679	0.056431	0.585689	-0.097550	0.705424	4.277232	-0.723393	0.000000	0.000000	23.861398	3.895234	5.535394	18.945579	-7.621898	87.075148	27.387582	8.788959	-3.601863	-9.034995	21.879114	9.948645	163.166694	0.206831	0.785280	-8.375716	-24.610140
1.533333	5.806275	-4.196830	101.774161	-0.000483	1.024224	0.622805	-2.408440	3.782576	2.308229	2.652961	0.046303	23.188182	-10.136593	0.000000	-0.217557	-3.674804	20.832026	1.549305	0.027040	25.040832	-13.957755	0.000000	0.071653	0.425114	0.143296	0.133067	0.565402	0.152252	0.117719	1.033623	0.152252	0.081892	1.033623	0.125384	0.066537	0.866893	0.116428	0.040942	0.658502	0.107472	0.511809	4.808979	0.796971	0.000000	0.000000	22.647661	3.220845	3.336309	17.543009	-9.096821	79.682152	29.988078	10.226292	-2.639252	-8.231914	24.392035	12.403812	170.150214	-4.942538	-4.107682	-2.466102	-26.042877
1.550000	6.017481	-3.760921	101.856418	-0.001742	1.025953	0.624042	-2.782526	4.001971	1.979703	2.687571	0.046907	22.735587	-9.850861	0.000000	-0.528385	-3.896228	20.708872	1.654252	0.028872	24.858963	-13.849977	0.000000	0.051960	0.454684	0.367812	0.096496	0.604730	0.390801	0.085366	1.105519	0.390801	0.059386	1.105519	0.321836	0.048250	0.927192	0.298847	0.029690	0.704306	0.275859	0.371148	5.143478	2.045662	0.000000	0.000000	21.649960	2.732567	1.433970	16.059117	-10.523852	72.938635	32.875699	13.153766	-1.354544	-7.468842	26.049747	13.826195	173.363876	-7.696849	-6.279734	2.699214	-26.626166
1.566667	6.134834	-3.418910	101.904114	-0.002491	1.027288	0.624797	-3.101769	4.138089	1.804519	2.703441	0.047184	22.402842	-9.683886	0.000000	-0.802794	-4.036286	20.572553	1.735481	0.030290	24.690083	-13.768125	0.000000	0.040512	0.467601	0.544772	0.075236	0.621909	0.578821	0.066558	1.136924	0.578821	0.046302	1.136924	0.476676	0.037620	0.953531	0.442628	0.023149	0.724313	0.408579	0.289376	5.289591	3.029861	0.000000	0.000000	20.883791	2.391486	-0.188238	14.508982	-11.883456	66.906068	36.167301	17.321272	0.164509	-6.693820	26.829865	14.255328	172.980861	-8.086931	-6.003230	7.150260	-26.610143
1.583333	6.162600	-3.170391	101.908467	-0.002740	1.028233	0.625102	-3.353869	4.192070	1.723698	2.721937	0.047507	22.225448	-9.533636	0.000000	-1.036342	-4.097403	20.393650	1.796158	0.031349	24.547141	-13.682128	0.000000	0.035323	0.464448	0.674399	0.065598	0.617715	0.716549	0.058032	1.129258	0.716549	0.040370	1.129258	0.590099	0.032801	0.947101	0.547949	0.020183	0.719429	0.505799	0.252307	5.253923	3.750805	0.000000	0.000000	20.352639	2.225960	-1.530440	12.934200	-13.115650	61.610407	39.934204	22.503979	1.856177	-5.795490	26.711417	13.787873	169.277072	-6.146806	-3.559766	10.995617	-25.979172
1.600000	6.104232	-3.025056	101.855561	-0.002496	1.028801	0.624993	-3.524314	4.163676	1.747521	2.746547	0.047936	22.183564	-9.412720	0.000000	-1.218220	-4.078203	20.183320	1.829545	0.031932	24.408700	-13.638602	0.000000	0.036009	0.445713	0.758432	0.066873	0.592799	0.805834	0.059160	1.083707	0.805834	0.041155	1.083707	0.663628	0.033438	0.908899	0.616226	0.020576	0.690410	0.568824	0.257211	5.041999	4.218174	0.000000	0.000000	20.064731	2.221399	-2.623076	11.398817	-14.134207	57.111927	44.137822	28.430310	3.772553	-4.937852	25.686194	12.530176	162.359994	-2.003694	0.808871	14.375954	-25.119726
1.616667	5.966804	-2.966425	101.742344	-0.001795	1.029020	0.624496	-3.622113	4.059885	1.834368	2.796004	0.048799	22.286142	-9.263508	0.000000	-1.362259	-3.986753	19.940326	1.835772	0.032040	24.293828	-13.620956	0.000000	0.038580	0.412390	0.800381	0.071646	0.548479	0.850405	0.063382	1.002686	0.850405	0.044093	1.002686	0.700333	0.035825	0.840946	0.650309	0.022044	0.638793	0.600286	0.275571	4.665041	4.451478	0.000000	0.000000	20.000881	2.402013	-3.494706	9.958952	-14.957085	52.936456	48.823566	35.214718	5.755408	-4.123027	23.806438	10.625773	152.502231	4.261337	6.712971	17.486727	-23.834246
1.633333	5.754068	-2.990980	101.567947	-0.000686	1.028930	0.623627	-3.647547	3.880211	1.940545	2.880433	0.050273	22.520733	-9.035321	0.000000	-1.470082	-3.824240	19.659322	1.813684	0.031655	24.207752	-13.608695	0.000000	0.042451	0.365487	0.802507	0.078835	0.486098	0.852664	0.069742	0.888646	0.852664	0.048517	0.888646	0.702194	0.039420	0.745302	0.652037	0.024256	0.566140	0.601880	0.303221	4.134466	4.463304	0.000000	0.000000	20.125853	2.737925	-4.161642	8.630766	-15.576077	48.812743	53.980976	42.856241	7.680182	-3.321014	21.150592	8.229274	140.018146	12.492539	13.821400	20.403261	-22.104255
1.650000	5.469025	-3.086136	101.332869	0.000794	1.028592	0.622401	-3.611720	3.628954	2.077480	3.003559	0.052422	22.854605	-8.775502	0.000000	-1.552651	-3.593281	19.336601	1.761774	0.030749	24.150185	-13.590133	0.000000	0.046598	0.305654	0.766475	0.086537	0.406520	0.814379	0.076556	0.743167	0.814379	0.053257	0.743167	0.670665	0.043271	0.623289	0.622761	0.026626	0.473458	0.574856	0.332844	3.457618	4.262901	0.000000	0.000000	20.406700	3.222155	-4.630133	7.426936	-15.981055	44.725484	59.541234	51.086391	9.369300	-2.610807	17.847184	5.466034	125.346183	22.499273	21.793922	23.016606	-19.922992
